<svg width="283" height="184" xmlns="http://www.w3.org/2000/svg" xmlns:xlink="http://www.w3.org/1999/xlink" xml:space="preserve" overflow="hidden"><g transform="translate(-1001 -595)"><text font-family="Circular Std Bold,Circular Std Bold_MSFontService,sans-serif" font-weight="700" font-size="83" transform="matrix(1 0 0 1 1051.01 703)">Amp</text><path d="M1026 754.5C1026 744.835 1033.84 737 1043.5 737L1242.5 737C1252.17 737 1260 744.835 1260 754.5L1260 754.5C1260 764.165 1252.16 772 1242.5 772L1043.5 772C1033.84 772 1026 764.165 1026 754.5Z" stroke="#000000" stroke-width="13.75" stroke-miterlimit="8" fill="none" fill-rule="evenodd"/><path d="M1214 734 1214 771.812" stroke="#000000" stroke-width="13.75" stroke-miterlimit="8" fill="none" fill-rule="evenodd"/><path d="M1075.5 734.5 1116.79 768.978" stroke="#000000" stroke-width="6.875" stroke-miterlimit="8" fill="none" fill-rule="evenodd"/><path d="M1043.5 734.5 1084.79 768.978" stroke="#000000" stroke-width="6.875" stroke-miterlimit="8" fill="none" fill-rule="evenodd"/><path d="M1026.5 747.5 1052.35 769.087" stroke="#000000" stroke-width="6.875" stroke-miterlimit="8" fill="none" fill-rule="evenodd"/><path d="M1173.5 734.5 1214.79 768.978" stroke="#000000" stroke-width="6.875" stroke-miterlimit="8" fill="none" fill-rule="evenodd"/><path d="M1140.5 734.5 1181.79 768.978" stroke="#000000" stroke-width="6.875" stroke-miterlimit="8" fill="none" fill-rule="evenodd"/><path d="M1108.5 734.5 1149.79 768.978" stroke="#000000" stroke-width="6.875" stroke-miterlimit="8" fill="none" fill-rule="evenodd"/></g></svg>